<?xml version="1.0" encoding="UTF-8"?>
<svg version="1.1" xmlns="http://www.w3.org/2000/svg" width="180" height="180">
<path d="M0 0 C59.4 0 118.8 0 180 0 C180 59.4 180 118.8 180 180 C120.6 180 61.2 180 0 180 C0 120.6 0 61.2 0 0 Z " fill="#3D92CB" transform="translate(0,0)"/>
<path d="M0 0 C4.00374431 1.83692389 6.71957934 4.49117916 9.75 7.625 C10.25660156 8.140625 10.76320312 8.65625 11.28515625 9.1875 C12.52803902 10.45383339 13.76465276 11.7263144 15 13 C15 10.03 15 7.06 15 4 C19.62 4 24.24 4 29 4 C28.77376953 6.26423828 28.77376953 6.26423828 28.54296875 8.57421875 C27.30312602 20.62308684 27.30312602 20.62308684 31.9296875 31.24609375 C34.22023255 33.54675577 36.6808669 35.50423818 39.25390625 37.4765625 C40.16011719 38.30929688 41.06632812 39.14203125 42 40 C41.90234375 42.8359375 41.90234375 42.8359375 41 45 C39.35 44.67 37.7 44.34 36 44 C36 66.44 36 88.88 36 112 C37.32 112 38.64 112 40 112 C40 113.98 40 115.96 40 118 C14.26 118 -11.48 118 -38 118 C-38 116.02 -38 114.04 -38 112 C-36.68 112 -35.36 112 -34 112 C-34 89.56 -34 67.12 -34 44 C-36.475 44.495 -36.475 44.495 -39 45 C-39.72239685 42.76496887 -39.72239685 42.76496887 -40 40 C-38.60169983 37.88017273 -38.60169983 37.88017273 -36.44165039 35.76049805 C-35.64074478 34.96004562 -34.83983917 34.1595932 -34.0146637 33.33488464 C-33.13455124 32.4857399 -32.25443878 31.63659515 -31.34765625 30.76171875 C-30.45839951 29.88095169 -29.56914276 29.00018463 -28.65293884 28.09272766 C-26.28772324 25.75543742 -23.91039797 23.43200246 -21.52618408 21.11419678 C-19.09585468 18.74528181 -16.68245485 16.35925684 -14.26757812 13.97460938 C-9.52718832 9.30045334 -4.77009378 4.64382785 0 0 Z " fill="#2A3E5C" transform="translate(89,31)"/>
<path d="M0 0 C17.82 0.33 35.64 0.66 54 1 C54 5.95 54 10.9 54 16 C53.01 16 52.02 16 51 16 C50.67 17.98 50.34 19.96 50 22 C47.69 22 45.38 22 43 22 C43.495 25.465 43.495 25.465 44 29 C43.34 29 42.68 29 42 29 C42 26.36 42 23.72 42 21 C42.66 21 43.32 21 44 21 C44 20.01 44 19.02 44 18 C43.34 18 42.68 18 42 18 C42 17.01 42 16.02 42 15 C39.69 15 37.38 15 35 15 C35 15.66 35 16.32 35 17 C32.03 17 29.06 17 26 17 C26 18.32 26 19.64 26 21 C26.66 21 27.32 21 28 21 C28 23.64 28 26.28 28 29 C27.34 29 26.68 29 26 29 C26 26.69 26 24.38 26 22 C25.030625 22.020625 24.06125 22.04125 23.0625 22.0625 C20 22 20 22 19 21 C18.95919217 19.00041636 18.95745644 16.99954746 19 15 C18.01 15 17.02 15 16 15 C16.33 19.95 16.66 24.9 17 30 C11.39 30 5.78 30 0 30 C0 28.68 0 27.36 0 26 C3.63 26 7.26 26 11 26 C10.67 25.67 10.34 25.34 10 25 C6.7 25 3.4 25 0 25 C0 16.75 0 8.5 0 0 Z " fill="#3A8DC5" transform="translate(63,81)"/>
<path d="M0 0 C3.33234574 1.45241736 5.54225606 3.2850086 8.109375 5.84375 C8.86347656 6.59527344 9.61757812 7.34679688 10.39453125 8.12109375 C11.17183594 8.90613281 11.94914062 9.69117188 12.75 10.5 C13.54277344 11.28503906 14.33554688 12.07007813 15.15234375 12.87890625 C16.27576172 14.00619141 16.27576172 14.00619141 17.421875 15.15625 C18.10862305 15.84525391 18.79537109 16.53425781 19.50292969 17.24414062 C21 19 21 19 21 21 C21.639375 21.268125 22.27875 21.53625 22.9375 21.8125 C25 23 25 23 26 26 C26.66 26 27.32 26 28 26 C28 29.63 28 33.26 28 37 C25.03 37 22.06 37 19 37 C19 32.38 19 27.76 19 23 C17.68 23 16.36 23 15 23 C15 23.66 15 24.32 15 25 C13.86820313 25.06058594 12.73640625 25.12117188 11.5703125 25.18359375 C10.08852855 25.26799917 8.6067584 25.35264717 7.125 25.4375 C6.37863281 25.47681641 5.63226563 25.51613281 4.86328125 25.55664062 C0.80013136 25.71573624 0.80013136 25.71573624 -3 27 C-3.33 26.34 -3.66 25.68 -4 25 C-5.155 24.835 -6.31 24.67 -7.5 24.5 C-8.655 24.335 -9.81 24.17 -11 24 C-11.33 23.34 -11.66 22.68 -12 22 C-13.32 21.67 -14.64 21.34 -16 21 C-16 26.28 -16 31.56 -16 37 C-19.3 37 -22.6 37 -26 37 C-26.13609913 35.27305325 -26.23249228 33.54295278 -26.3125 31.8125 C-26.37050781 30.84957031 -26.42851563 29.88664062 -26.48828125 28.89453125 C-25.81990016 24.93236817 -23.89454091 23.73835335 -21 21 C-20.17653076 20.17653076 -19.35306152 19.35306152 -18.50463867 18.50463867 C-12.33642578 12.33642578 -6.16821289 6.16821289 0 0 Z " fill="#3B8DC5" transform="translate(89,39)"/>
<path d="M0 0 C11.55 0 23.1 0 35 0 C33.81333333 7.12 33.81333333 7.12 32 10 C31.01 10.495 31.01 10.495 30 11 C30.24556641 11.84304687 30.24556641 11.84304687 30.49609375 12.703125 C31.02864997 15.13059056 31.09898681 17.26889681 31.0625 19.75 C31.05347656 20.54921875 31.04445313 21.3484375 31.03515625 22.171875 C31.02355469 22.77515625 31.01195313 23.3784375 31 24 C30.34 24 29.68 24 29 24 C29 24.99 29 25.98 29 27 C24.05 27 19.1 27 14 27 C14 23.37 14 19.74 14 16 C13.01 16 12.02 16 11 16 C11 13.69 11 11.38 11 9 C7.7 9 4.4 9 1 9 C1 10.98 1 12.96 1 15 C0.67 15 0.34 15 0 15 C0 10.05 0 5.1 0 0 Z " fill="#3B8DC5" transform="translate(63,116)"/>
<path d="M0 0 C3.96 0 7.92 0 12 0 C12 9.57 12 19.14 12 29 C13.65 29 15.3 29 17 29 C17 29.33 17 29.66 17 30 C11.39 30 5.78 30 0 30 C0 28.68 0 27.36 0 26 C3.63 26 7.26 26 11 26 C10.67 25.67 10.34 25.34 10 25 C6.7 25 3.4 25 0 25 C0 16.75 0 8.5 0 0 Z " fill="#2F5075" transform="translate(63,81)"/>
<path d="M0 0 C2.31 0 4.62 0 7 0 C7 8.91 7 17.82 7 27 C6.34 27 5.68 27 5 27 C5 26.01 5 25.02 5 24 C4.34 24 3.68 24 3 24 C2.6309795 14.58997722 2.6309795 14.58997722 5 10 C4.01 10 3.02 10 2 10 C-0.09350689 6.5980513 -0.17942163 3.94727588 0 0 Z " fill="#3987BE" transform="translate(110,116)"/>
<path d="M0 0 C3 0.25 3 0.25 5 2.25 C5.25 5.25 5.25 5.25 5 8.25 C3 10.25 3 10.25 0 10.5 C-3 10.25 -3 10.25 -5 8.25 C-5.25 5.25 -5.25 5.25 -5 2.25 C-3 0.25 -3 0.25 0 0 Z " fill="#3572A1" transform="translate(90,47.75)"/>
<path d="M0 0 C0.721875 0.00257812 1.44375 0.00515625 2.1875 0.0078125 C2.909375 0.00523438 3.63125 0.00265625 4.375 0 C6.1875 0.1328125 6.1875 0.1328125 7.1875 1.1328125 C7.3125 4.6328125 7.3125 4.6328125 7.1875 8.1328125 C6.1875 9.1328125 6.1875 9.1328125 4.375 9.265625 C3.653125 9.26304688 2.93125 9.26046875 2.1875 9.2578125 C1.465625 9.26039062 0.74375 9.26296875 0 9.265625 C-1.8125 9.1328125 -1.8125 9.1328125 -2.8125 8.1328125 C-2.9375 4.6328125 -2.9375 4.6328125 -2.8125 1.1328125 C-1.8125 0.1328125 -1.8125 0.1328125 0 0 Z " fill="#346A98" transform="translate(104.8125,84.8671875)"/>
<path d="M0 0 C2.97 0 5.94 0 9 0 C9 2.97 9 5.94 9 9 C6.03 9 3.06 9 0 9 C0 6.03 0 3.06 0 0 Z " fill="#336A97" transform="translate(79,120)"/>
<path d="M0 0 C2.97 0 5.94 0 9 0 C9 2.64 9 5.28 9 8 C6.03 8 3.06 8 0 8 C0 5.36 0 2.72 0 0 Z " fill="#346D9A" transform="translate(88,85)"/>
<path d="M0 0 C3.3 0 6.6 0 10 0 C10 2.31 10 4.62 10 7 C6.7 7 3.4 7 0 7 C0 4.69 0 2.38 0 0 Z " fill="#346895" transform="translate(99,133)"/>
<path d="M0 0 C13.365 0.495 13.365 0.495 27 1 C27 1.66 27 2.32 27 3 C18.09 3 9.18 3 0 3 C0 2.01 0 1.02 0 0 Z " fill="#387FB3" transform="translate(77,73)"/>
<path d="M0 0 C2.31 0 4.62 0 7 0 C7 2.64 7 5.28 7 8 C4.69 8 2.38 8 0 8 C0 5.36 0 2.72 0 0 Z " fill="#398CC4" transform="translate(94,102)"/>
<path d="M0 0 C1.98 0 3.96 0 6 0 C6 3.3 6 6.6 6 10 C2 9 2 9 0.75 7.25 C-0.0957901 4.71262971 -0.14764761 2.65765704 0 0 Z " fill="#3B8FC8" transform="translate(110,117)"/>
<path d="M0 0 C3.3 0 6.6 0 10 0 C10 1.32 10 2.64 10 4 C6.7 4 3.4 4 0 4 C0 2.68 0 1.36 0 0 Z " fill="#3986BB" transform="translate(63,102)"/>
<path d="M0 0 C3.3 0 6.6 0 10 0 C10 1.32 10 2.64 10 4 C6.7 4 3.4 4 0 4 C0 2.68 0 1.36 0 0 Z " fill="#3987BD" transform="translate(63,97)"/>
<path d="M0 0 C2.64 0 5.28 0 8 0 C8 1.65 8 3.3 8 5 C5.36 5 2.72 5 0 5 C0 3.35 0 1.7 0 0 Z " fill="#2D4B6E" transform="translate(103,89)"/>
<path d="M0 0 C3.3 0 6.6 0 10 0 C10 1.32 10 2.64 10 4 C6.7 4 3.4 4 0 4 C0 2.68 0 1.36 0 0 Z " fill="#3B8AC1" transform="translate(63,92)"/>
<path d="M0 0 C3.3 0 6.6 0 10 0 C10 1.32 10 2.64 10 4 C6.7 4 3.4 4 0 4 C0 2.68 0 1.36 0 0 Z " fill="#3988BE" transform="translate(63,87)"/>
<path d="M0 0 C3.3 0 6.6 0 10 0 C10 1.32 10 2.64 10 4 C6.7 4 3.4 4 0 4 C0 2.68 0 1.36 0 0 Z " fill="#3B8CC4" transform="translate(63,82)"/>
<path d="M0 0 C3.3 0 6.6 0 10 0 C10 0.99 10 1.98 10 3 C6.7 3 3.4 3 0 3 C0 2.01 0 1.02 0 0 Z " fill="#3987BE" transform="translate(77,73)"/>
<path d="M0 0 C3.3 0 6.6 0 10 0 C10 0.99 10 1.98 10 3 C6.7 3 3.4 3 0 3 C0 2.01 0 1.02 0 0 Z " fill="#3A8DC5" transform="translate(63,107)"/>
<path d="M0 0 C0.33 0 0.66 0 1 0 C1 3.96 1 7.92 1 12 C0.01 12 -0.98 12 -2 12 C-1.85962479 10.18706911 -1.71255111 8.3746557 -1.5625 6.5625 C-1.48128906 5.55316406 -1.40007812 4.54382813 -1.31640625 3.50390625 C-1 1 -1 1 0 0 Z " fill="#305B83" transform="translate(117,98)"/>
<path d="M0 0 C0.99 0.66 1.98 1.32 3 2 C2.34 3.32 1.68 4.64 1 6 C-0.32 5.34 -1.64 4.68 -3 4 C-2.01 2.68 -1.02 1.36 0 0 Z " fill="#95C3E2" transform="translate(170,167)"/>
<path d="M0 0 C1.65 0 3.3 0 5 0 C5 1.98 5 3.96 5 6 C4.34 6 3.68 6 3 6 C2.01 4.02 1.02 2.04 0 0 Z " fill="#3884BB" transform="translate(104,134)"/>
<path d="M0 0 C1.98 0 3.96 0 6 0 C6 0.99 6 1.98 6 3 C4.02 3 2.04 3 0 3 C0 2.01 0 1.02 0 0 Z " fill="#377DB1" transform="translate(104,90)"/>
</svg>
